Coordinates
version=1
nRows=14
nColumns=24
inDegrees=yes

Units are S.I. units (second, meters, Newtons, ...)
Angles are in degrees.

endheader
time	pelvis_tilt	pelvis_list	pelvis_rotation	pelvis_tx	pelvis_ty	pelvis_tz	hip_flexion_r	hip_adduction_r	hip_rotation_r	knee_angle_r	ankle_angle_r	subtalar_angle_r	mtp_angle_r	hip_flexion_l	hip_adduction_l	hip_rotation_l	knee_angle_l	ankle_angle_l	subtalar_angle_l	mtp_angle_l	lumbar_extension	lumbar_bending	lumbar_rotation
      5.70000000	      4.26470876	      6.69249011	      6.13013096	     -0.83529353	      0.88386371	      0.20483921	     17.34548680	     -5.79401444	      1.28987993	      1.77511919	      7.18261483	     -1.30212596	      0.00000000	    -22.64714263	      8.61289698	     13.24963287	     -4.44359125	     15.07599874	     -3.96694436	      0.00000000	    -26.43545020	     -4.01680161	    -15.34868674
      5.71000000	      4.57690599	      6.68220115	      6.21813711	     -0.82230830	      0.88268090	      0.20516796	     17.48741308	     -5.60729433	      0.19413855	      0.94157846	      7.40357722	     -0.96738822	      0.00000000	    -23.32205362	      8.36658732	     12.63175560	     -5.45930797	     15.42095489	     -2.50058727	      0.00000000	    -26.86187299	     -3.85422043	    -15.12712095
      5.72000000	      4.88380865	      6.60575129	      6.25453349	     -0.80904385	      0.88157278	      0.20561041	     17.68972219	     -5.34071194	     -0.82441588	     -0.43176457	      7.49982637	     -1.12125564	      0.00000000	    -23.87747864	      8.06659280	     11.84789185	     -6.68109157	     15.79327275	     -0.82431687	      0.00000000	    -27.22483123	     -3.62915762	    -14.84605363
      5.73000000	      5.18218475	      6.48428802	      6.26580736	     -0.79550201	      0.88056032	      0.20610699	     17.90687341	     -5.04143832	     -1.74562830	     -2.19548241	      7.41816321	     -1.57375252	      0.00000000	    -24.29851297	      7.73322247	     10.94509605	     -8.13353603	     16.04847763	      0.88110334	      0.00000000	    -27.52314894	     -3.35647752	    -14.54473537
      5.74000000	      5.48122860	      6.32707277	      6.30487914	     -0.78167797	      0.87969207	      0.20658167	     18.05184598	     -4.73317274	     -2.32820406	     -4.15959176	      7.02085273	     -2.47013681	      0.00000000	    -24.60332829	      7.35303584	     10.01730408	     -9.80054621	     16.10613771	      2.54926007	      0.00000000	    -27.76097451	     -3.01512320	    -14.30377713
      5.75000000	      5.64124287	      6.13043152	      6.35996013	     -0.76761991	      0.87882414	      0.20705605	     18.29501511	     -4.40467076	     -2.50873729	     -6.26717647	      6.23414126	     -3.69115850	      0.00000000	    -24.61805202	      6.95713314	      9.10234589	    -11.71123829	     15.93359982	      4.01165192	      0.00000000	    -27.76490692	     -2.64599296	    -14.09593267
      5.76000000	      5.84878136	      5.85733472	      6.43257092	     -0.75338043	      0.87827174	      0.20748394	     18.42843593	     -3.99274025	     -2.42331541	     -8.43304240	      5.27188179	     -4.93572824	      0.00000000	    -24.55917937	      6.49280158	      8.31369270	    -13.80335666	     15.35057961	      5.11009498	      0.00000000	    -27.76395440	     -2.15639622	    -13.92565222
      5.77000000	      6.01643281	      5.51030018	      6.52038875	     -0.73906495	      0.87796245	      0.20782677	     18.61460547	     -3.51902723	     -2.35988234	    -10.70454876	      4.45177919	     -5.74210332	      0.00000000	    -24.30742932	      6.01022106	      7.79477574	    -16.10595801	     14.24333317	      5.54301404	      0.00000000	    -27.66662136	     -1.57150388	    -13.72654366
      5.78000000	      6.23281388	      5.16424332	      6.62323936	     -0.72477235	      0.87804038	      0.20811768	     18.72195651	     -3.03172856	     -2.13835727	    -12.99792036	      3.95500606	     -6.30641305	      0.00000000	    -23.88412860	      5.53798520	      7.21863964	    -18.71331494	     12.58969478	      5.88236171	      0.00000000	    -27.61674886	     -0.96827994	    -13.64362646
      5.79000000	      6.53070533	      4.74549117	      6.69584521	     -0.71051610	      0.87850204	      0.20834252	     18.72040182	     -2.45993456	     -2.03229568	    -15.26228663	      3.85624390	     -6.46002056	      0.00000000	    -23.33726768	      5.04664245	      6.71234321	    -21.57499640	     10.34207571	      5.75341238	      0.00000000	    -27.63591718	     -0.26359474	    -13.48280618
      5.80000000	      6.65690992	      4.37398123	      6.75957195	     -0.69639259	      0.87894856	      0.20851215	     18.90017929	     -1.96413567	     -2.02417197	    -17.53838549	      4.42582341	     -6.22340143	      0.00000000	    -22.32997305	      4.66098207	      6.15721869	    -24.80664116	      7.60475548	      5.36268591	      0.00000000	    -27.45363144	      0.35271902	    -13.35724530
      5.81000000	      6.84578264	      3.97855356	      6.81231330	     -0.68241306	      0.87966440	      0.20862181	     18.89278397	     -1.44791206	     -2.15725586	    -19.59082821	      5.44651639	     -5.76782351	      0.00000000	    -21.15092732	      4.26714334	      5.58009991	    -28.30569015	      4.37121167	      4.71374239	      0.00000000	    -27.35656259	      1.00920463	    -13.19930238
      5.82000000	      7.01510536	      3.56390462	      6.88658192	     -0.66863533	      0.88048538	      0.20871365	     18.74236761	     -0.91585574	     -2.34450306	    -21.33955398	      6.68844187	     -5.36044207	      0.00000000	    -19.69324134	      3.83188953	      4.92219983	    -32.09352252	      0.96809130	      3.99429736	      0.00000000	    -27.26285721	      1.67042198	    -13.01803207
      5.83000000	      7.12622900	      3.09497415	      7.01445999	     -0.65508761	      0.88132222	      0.20879608	     18.45589709	     -0.33108005	     -2.56311297	    -22.71015953	      8.01412810	     -5.11127748	      0.00000000	    -17.93467012	      3.29711933	      4.23294787	    -36.12834012	     -2.25631521	      3.24633387	      0.00000000	    -27.12610191	      2.37171123	    -12.79165885
